<svg xmlns="http://www.w3.org/2000/svg" version="1.1"
    xmlns:xlink="http://www.w3.org/1999/xlink"
    xmlns:svgjs="http://svgjs.com/svgjs" width="512" height="512" x="0" y="0" viewBox="0 0 512 512" style="enable-background:new 0 0 512 512" xml:space="preserve" class="">
    <g>
        <path xmlns="http://www.w3.org/2000/svg" d="m256 0c-141.386719 0-256 114.613281-256 256s114.613281 256 256 256 256-114.613281 256-256c-.15625-141.320312-114.679688-255.84375-256-256zm0 486.402344c-127.246094 0-230.398438-103.15625-230.398438-230.402344s103.152344-230.398438 230.398438-230.398438 230.398438 103.152344 230.398438 230.398438c-.144532 127.1875-103.210938 230.253906-230.398438 230.402344zm0 0" fill="#000000" data-original="#000000"></path>
        <path xmlns="http://www.w3.org/2000/svg" d="m256 153.601562c29.902344.148438 58.234375 13.40625 77.511719 36.261719 4.59375 5.375 12.671875 6.015625 18.050781 1.425781 5.375-4.589843 6.015625-12.671874 1.425781-18.050781-45.710937-53.925781-126.480469-60.589843-180.40625-14.882812-53.929687 45.707031-60.59375 126.480469-14.882812 180.40625 45.707031 53.925781 126.476562 60.589843 180.40625 14.882812 5.359375-4.542969 10.335937-9.519531 14.882812-14.882812 4.589844-5.378907 3.949219-13.457031-1.425781-18.050781-5.378906-4.589844-13.457031-3.949219-18.050781 1.425781-36.640625 42.925781-101.144531 48.019531-144.070313 11.375-42.921875-36.640625-48.015625-101.144531-11.375-144.070313 19.464844-22.796875 47.957032-35.902344 77.933594-35.839844zm0 0" fill="#000000" data-original="#000000"></path>
    </g>
</svg>